# xmcd
#
# Track frame offsets:
#	150
#	14216
#	29590
#	47550
#	64081
#	78344
#	97873
#	114161
#	130194
#	144955
#	158855
#	172764
#	187158
#	204808
#	219423
#	236407
#	248175
#	262380
#	278247
#	292270
#
# Disc length: 4134 seconds
#
# Revision: 1
# Processed by: cddbd v1.4PL0 Copyright (c) Steve Scherf et al.
# Submitted via: audiograbber 1.80
#
DISCID=22102414
DTITLE=Various Artist - Hott Country 016
DYEAR=1900
DGENRE=
TTITLE0=Vince Gill - A Little More Love
TTITLE1=Deana Carter - Count Me In
TTITLE2=Alan Jackson - Who's Cheatin' Who
TTITLE3=Ty Herndon - Loved To Much
TTITLE4=Lee Ann Womack - Never Again, Again
TTITLE5=Patty Loveless - The Trouble With The Truth
TTITLE6=Rick Trevino - I Only Get This Way With You
TTITLE7=Travis Tritt - She's Going Home With Me
TTITLE8=Pam Tillis - All The Good Ones Are Gone
TTITLE9=Tammy Graham - A Dozen Red Roses
TTITLE10=John Berry - I Will If You Wll
TTITLE11=Sammy Kershaw - Fit To Be Tied Down
TTITLE12=Suzy Bogguss - She Said, He Heard
TTITLE13=Kim Richey - I Know
TTITLE14=Lee Roy Parnell - Lucky Me, Lucky You
TTITLE15=Emilio - I'd Love You To Love Me
TTITLE16=Aaron Tippin - A Door
TTITLE17=Paririe Oyster - She Won't Be Lonely Long
TTITLE18=Clay Walker - One, Two, I Love You
TTITLE19=Kris Tyler - Keeping Your Kisses
EXTD=
EXTT0=
EXTT1=
EXTT2=
EXTT3=
EXTT4=
EXTT5=
EXTT6=
EXTT7=
EXTT8=
EXTT9=
EXTT10=
EXTT11=
EXTT12=
EXTT13=
EXTT14=
EXTT15=
EXTT16=
EXTT17=
EXTT18=
EXTT19=
PLAYORDER=
